<svg width="156" height="44" fill="none" xmlns="http://www.w3.org/2000/svg"><path d="M38.12 37.54c-4.24 4.2-9.4 6.3-15.48 6.3s-11.24-2.1-15.48-6.3C2.92 33.34.8 28.16.8 22c0-6.16 2.12-11.34 6.36-15.54 4.24-4.2 9.4-6.3 15.48-6.3s11.24 2.1 15.48 6.3c4.24 4.2 6.36 9.38 6.36 15.54 0 6.16-2.12 11.34-6.36 15.54zM13.88 31c2.36 2.32 5.28 3.48 8.76 3.48 3.48 0 6.38-1.16 8.7-3.48 2.36-2.32 3.54-5.32 3.54-9 0-3.68-1.18-6.68-3.54-9-2.32-2.32-5.22-3.48-8.7-3.48-3.48 0-6.4 1.16-8.76 3.48-2.32 2.32-3.48 5.32-3.48 9 0 3.68 1.16 6.68 3.48 9zm61.505-20.76h-15.9v8.1h15.6v9.24h-15.6V43h-9.6V1h25.5v9.24zM97.857 1c5.8 0 10.64 2.02 14.52 6.06 3.92 4 5.88 8.98 5.88 14.94 0 5.96-1.96 10.96-5.88 15-3.88 4-8.72 6-14.52 6h-16.8V1h16.8zm0 32.76c3.32 0 6-1.06 8.04-3.18 2.08-2.16 3.12-5.02 3.12-8.58 0-3.56-1.04-6.4-3.12-8.52-2.04-2.16-4.72-3.24-8.04-3.24h-7.2v23.52h7.2zm53.045 6.18c-3.04 2.6-6.92 3.9-11.64 3.9-4.72 0-8.6-1.3-11.64-3.9-3.04-2.6-4.56-6.1-4.56-10.5V1h9.6v27.6c0 3.92 2.2 5.88 6.6 5.88 4.4 0 6.6-1.96 6.6-5.88V1h9.6v28.44c0 4.4-1.52 7.9-4.56 10.5z" fill="#fff" fill-opacity=".127"/></svg>